<svg width="12" height="12" viewBox="0 0 12 12" xmlns="http://www.w3.org/2000/svg">
  <path fill-rule="evenodd" clip-rule="evenodd"
    d="M2 3.25C2 2.83579 2.33579 2.5 2.75 2.5H9.25C9.66421 2.5 10 2.83579 10 3.25V8.75C10 9.16421 9.66421 9.5 9.25 9.5H2.75C2.33579 9.5 2 9.16421 2 8.75V3.25ZM2.75 3.5V4.75H9.25V3.5H2.75ZM2.75 7.25V8.5H9.25V7.25H2.75ZM5.25 5.25C5.11193 5.25 5 5.36193 5 5.5V6.5C5 6.63807 5.11193 6.75 5.25 6.75H6.75C6.88807 6.75 7 6.63807 7 6.5V5.5C7 5.36193 6.88807 5.25 6.75 5.25H5.25Z"
    fill="currentColor"/>
</svg>